<?xml version="1.0" encoding="utf-8" standalone="yes"?>
<!DOCTYPE svg PUBLIC "-//W3C//DTD SVG 1.1//EN" "http://www.w3.org/Graphics/SVG/1.1/DTD/svg11.dtd">
<svg width="62" height="62" viewBox="0 0 62 62" style="fill:none;stroke:none;fill-rule:evenodd;clip-rule:evenodd;stroke-linecap:round;stroke-linejoin:round;stroke-miterlimit:1.5;" version="1.1" xmlns="http://www.w3.org/2000/svg" xmlns:xlink="http://www.w3.org/1999/xlink"><g id="items" style="isolation: isolate"><g id="blend" style="mix-blend-mode: normal"><g id="g-root-ic_1_1ut1pbsdxciz2-fill" data-item-order="1000000000" transform="translate(3, 3)"></g><g id="g-root-ic_1_1ut1pbsdxciz2-stroke" data-item-order="1000000000" transform="translate(3, 3)"><g id="ic_1_1ut1pbsdxciz2-stroke" fill="none" stroke-linecap="round" stroke-linejoin="round" stroke-miterlimit="4" stroke="#f669be" stroke-width="2"><g><path d="M 15.454 34.165001L 28.030001 23.831499L 40.546001 34.165001M 18.726999 31.462L 18.726999 43.4035C 18.725803 43.693634 18.84012 43.972321 19.044714 44.17804C 19.24931 44.383759 19.527361 44.499603 19.817499 44.5L 24.726999 44.5L 24.726999 36.857502C 24.726999 36.255234 25.215233 35.766998 25.817501 35.766998L 30.182499 35.766998C 30.784767 35.766998 31.273001 36.255234 31.273001 36.857502L 31.273001 44.5L 36.182499 44.5C 36.784424 44.499172 37.272171 44.011421 37.272999 43.4095L 37.272999 31.462M 24.945999 11.506L 29.5 16.061501L 24.945999 20.617001M 34.017998 17.126499C 39.284866 19.186522 43.129745 23.800461 44.206139 29.352482C 45.282532 34.904507 43.440445 40.620995 39.325001 44.5L 16.674999 44.5C 11.75814 39.859818 10.169415 32.689678 12.666011 26.406857C 15.162605 20.124035 21.239319 15.999898 28 16C 28.505501 16 29.0065 16.022499 29.5 16.067501"></path></g></g></g></g></g></svg>